<mxfile host="app.diagrams.net" agent="Mozilla/5.0 (Windows NT 10.0; Win64; x64) AppleWebKit/537.36 (KHTML, like Gecko) Chrome/134.0.0.0 Safari/537.36 Edg/134.0.0.0" version="26.2.4">
  <diagram id="DuhL4yZ-4B9erglTWEoS" name="Página-1">
    <mxGraphModel dx="767" dy="1111" grid="1" gridSize="10" guides="1" tooltips="1" connect="1" arrows="1" fold="1" page="1" pageScale="1" pageWidth="827" pageHeight="1169" math="0" shadow="0">
      <root>
        <mxCell id="0" />
        <mxCell id="1" parent="0" />
        <mxCell id="2" value="Usuario" style="shape=umlLifeline;" parent="1" vertex="1">
          <mxGeometry x="50" y="50" width="80" height="400" as="geometry" />
        </mxCell>
        <mxCell id="3" value="Sistema" style="shape=umlLifeline;" parent="1" vertex="1">
          <mxGeometry x="240" y="50" width="80" height="400" as="geometry" />
        </mxCell>
        <mxCell id="4" value="Iniciar Sesión" style="edgeStyle=orthogonalEdgeStyle;" parent="1" edge="1">
          <mxGeometry x="-0.5" y="20" relative="1" as="geometry">
            <mxPoint x="90" y="140" as="sourcePoint" />
            <mxPoint x="240" y="140" as="targetPoint" />
            <mxPoint as="offset" />
          </mxGeometry>
        </mxCell>
        <mxCell id="6" value="Consultar versiones " style="edgeStyle=orthogonalEdgeStyle;entryX=0.535;entryY=0.273;entryDx=0;entryDy=0;entryPerimeter=0;" parent="1" edge="1">
          <mxGeometry x="-0.1805" y="20" relative="1" as="geometry">
            <mxPoint x="280" y="140" as="sourcePoint" />
            <mxPoint x="282.80000000000007" y="169.19999999999993" as="targetPoint" />
            <Array as="points">
              <mxPoint x="340" y="140" />
              <mxPoint x="340" y="169" />
            </Array>
            <mxPoint x="-20" y="-20" as="offset" />
          </mxGeometry>
        </mxCell>
        <mxCell id="7" value="Mostrar textos legales" style="edgeStyle=orthogonalEdgeStyle;" parent="1" edge="1">
          <mxGeometry x="0.0909" y="-20" relative="1" as="geometry">
            <mxPoint x="280" y="200" as="sourcePoint" />
            <mxPoint x="140" y="200" as="targetPoint" />
            <Array as="points">
              <mxPoint x="280" y="200" />
            </Array>
            <mxPoint as="offset" />
          </mxGeometry>
        </mxCell>
        <mxCell id="8" value="Aceptar términos" style="edgeStyle=orthogonalEdgeStyle;" parent="1" target="3" edge="1">
          <mxGeometry x="-0.3334" y="20" relative="1" as="geometry">
            <mxPoint x="90" y="260.0000000000001" as="sourcePoint" />
            <mxPoint x="210" y="260.0000000000001" as="targetPoint" />
            <Array as="points">
              <mxPoint x="210" y="260" />
              <mxPoint x="210" y="260" />
            </Array>
            <mxPoint as="offset" />
          </mxGeometry>
        </mxCell>
        <mxCell id="9" value="Registrar aceptación" style="edgeStyle=orthogonalEdgeStyle;exitX=0.545;exitY=0.233;exitDx=0;exitDy=0;exitPerimeter=0;entryX=0.486;entryY=0.625;entryDx=0;entryDy=0;entryPerimeter=0;dashed=1;" parent="1" target="3" edge="1">
          <mxGeometry x="-0.2834" y="20" relative="1" as="geometry">
            <mxPoint x="280.0199999999999" y="263.18999999999994" as="sourcePoint" />
            <mxPoint x="309.99" y="280.00149425287367" as="targetPoint" />
            <Array as="points">
              <mxPoint x="280" y="260" />
              <mxPoint x="346" y="260" />
              <mxPoint x="346" y="300" />
            </Array>
            <mxPoint as="offset" />
          </mxGeometry>
        </mxCell>
        <mxCell id="10" value="Acceso concedido" style="edgeStyle=orthogonalEdgeStyle;dashed=1;" parent="1" edge="1">
          <mxGeometry y="-20" relative="1" as="geometry">
            <mxPoint x="280" y="330.0000000000001" as="sourcePoint" />
            <mxPoint x="140" y="330" as="targetPoint" />
            <mxPoint as="offset" />
          </mxGeometry>
        </mxCell>
      </root>
    </mxGraphModel>
  </diagram>
</mxfile>
